<svg width="800" height="800" viewBox="0 0 800 800" fill="none" xmlns="http://www.w3.org/2000/svg">
<path d="M688.585 81.678H284.176C265.166 81.678 249.756 97.0882 249.756 116.098V690.146C249.756 709.156 265.166 724.566 284.176 724.566H688.585C707.595 724.566 723.005 709.156 723.005 690.146V116.098C723.005 97.0882 707.595 81.678 688.585 81.678Z" fill="#F4C23F"/>
<path d="M712.585 692.098H308.215C299.086 692.098 290.331 688.471 283.876 682.016C277.421 675.561 273.795 666.807 273.795 657.678V83.2781C266.824 85.4895 260.737 89.8616 256.416 95.7618C252.094 101.662 249.762 108.784 249.756 116.098V690.107C249.756 699.246 253.387 708.011 259.849 714.473C266.311 720.935 275.076 724.566 284.215 724.566H688.585C697.653 724.566 706.355 720.988 712.8 714.609C719.245 708.23 722.912 699.565 723.005 690.498C719.636 691.569 716.121 692.109 712.585 692.098Z" fill="#F4A93F"/>
<path d="M343.493 81.6781H284.215C279.691 81.6729 275.211 82.5594 271.031 84.2869C266.85 86.0143 263.051 88.5488 259.851 91.7455C256.651 94.9422 254.112 98.7383 252.38 102.917C250.648 107.095 249.756 111.574 249.756 116.098V690.107C249.756 699.246 253.387 708.011 259.849 714.473C266.311 720.935 275.076 724.566 284.215 724.566H343.493V81.6781Z" fill="#67BAEB"/>
<path d="M308.215 692.098C299.086 692.098 290.331 688.471 283.876 682.016C277.421 675.561 273.795 666.807 273.795 657.678V83.2781C266.824 85.4895 260.737 89.8616 256.416 95.7618C252.094 101.662 249.762 108.784 249.756 116.098V690.107C249.756 699.246 253.387 708.011 259.849 714.473C266.311 720.935 275.076 724.566 284.215 724.566H343.493V692.098H308.215Z" fill="#46A1F8"/>
<path d="M295.454 223.571H230.907C224.749 223.571 218.843 221.124 214.489 216.77C210.134 212.415 207.688 206.509 207.688 200.351C207.688 194.193 210.134 188.287 214.489 183.933C218.843 179.578 224.749 177.132 230.907 177.132H295.454C301.612 177.132 307.518 179.578 311.872 183.933C316.227 188.287 318.673 194.193 318.673 200.351C318.673 206.509 316.227 212.415 311.872 216.77C307.518 221.124 301.612 223.571 295.454 223.571Z" fill="#4D4C78"/>
<path d="M295.454 358.751H230.907C224.749 358.751 218.843 356.305 214.489 351.95C210.134 347.596 207.688 341.69 207.688 335.532C207.688 329.374 210.134 323.468 214.489 319.113C218.843 314.759 224.749 312.312 230.907 312.312H295.454C301.612 312.312 307.518 314.759 311.872 319.113C316.227 323.468 318.673 329.374 318.673 335.532C318.673 341.69 316.227 347.596 311.872 351.95C307.518 356.305 301.612 358.751 295.454 358.751Z" fill="#4D4C78"/>
<path d="M295.454 493.932H230.907C224.749 493.932 218.843 491.485 214.489 487.131C210.134 482.776 207.688 476.87 207.688 470.712C207.688 464.554 210.134 458.648 214.489 454.294C218.843 449.939 224.749 447.493 230.907 447.493H295.454C301.612 447.493 307.518 449.939 311.872 454.294C316.227 458.648 318.673 464.554 318.673 470.712C318.673 476.87 316.227 482.776 311.872 487.131C307.518 491.485 301.612 493.932 295.454 493.932Z" fill="#4D4C78"/>
<path d="M295.454 629.112H230.907C224.749 629.112 218.843 626.666 214.489 622.311C210.134 617.957 207.688 612.051 207.688 605.893C207.688 599.734 210.134 593.828 214.489 589.474C218.843 585.119 224.749 582.673 230.907 582.673H295.454C301.612 582.673 307.518 585.119 311.872 589.474C316.227 593.828 318.673 599.734 318.673 605.893C318.673 612.051 316.227 617.957 311.872 622.311C307.518 626.666 301.612 629.112 295.454 629.112Z" fill="#4D4C78"/>
<path d="M314.263 208.39H249.717C243.562 208.38 237.662 205.93 233.31 201.578C228.958 197.226 226.508 191.326 226.498 185.171C226.487 182.496 226.95 179.841 227.863 177.327C222.012 178.09 216.67 181.053 212.925 185.613C209.179 190.173 207.31 195.988 207.698 201.876C208.085 207.765 210.7 213.285 215.011 217.314C219.323 221.344 225.006 223.581 230.907 223.571H295.454C300.241 223.568 304.91 222.085 308.822 219.325C312.735 216.566 315.698 212.665 317.307 208.156C316.3 208.313 315.283 208.391 314.263 208.39Z" fill="#323150"/>
<path d="M314.263 343.571H249.717C243.562 343.56 237.662 341.111 233.31 336.759C228.958 332.406 226.508 326.506 226.498 320.351C226.487 317.677 226.95 315.021 227.863 312.507C222.012 313.271 216.67 316.233 212.925 320.793C209.179 325.353 207.31 331.168 207.698 337.057C208.085 342.945 210.7 348.465 215.011 352.495C219.323 356.524 225.006 358.761 230.907 358.751H295.454C300.241 358.748 304.91 357.265 308.822 354.506C312.735 351.747 315.698 347.845 317.307 343.337C316.3 343.494 315.283 343.572 314.263 343.571Z" fill="#323150"/>
<path d="M314.263 478.751H249.717C243.562 478.741 237.662 476.291 233.31 471.939C228.958 467.587 226.508 461.687 226.498 455.532C226.491 452.857 226.953 450.202 227.863 447.688C222.012 448.451 216.67 451.414 212.925 455.974C209.179 460.534 207.31 466.349 207.698 472.237C208.085 478.126 210.7 483.646 215.011 487.675C219.323 491.705 225.006 493.942 230.907 493.932H295.454C300.235 493.926 304.898 492.447 308.809 489.695C312.719 486.944 315.687 483.054 317.307 478.556C316.297 478.681 315.281 478.746 314.263 478.751Z" fill="#323150"/>
<path d="M314.263 613.932H249.717C243.562 613.921 237.662 611.472 233.31 607.119C228.958 602.767 226.508 596.867 226.498 590.712C226.491 588.038 226.953 585.383 227.863 582.868C222.012 583.632 216.67 586.594 212.925 591.154C209.179 595.714 207.31 601.529 207.698 607.418C208.085 613.306 210.7 618.826 215.011 622.856C219.323 626.885 225.006 629.122 230.907 629.112H295.454C300.235 629.106 304.898 627.627 308.809 624.876C312.719 622.125 315.687 618.235 317.307 613.737C316.297 613.861 315.281 613.926 314.263 613.932Z" fill="#323150"/>
<path d="M630.4 181.307H404.02C401.95 181.307 399.964 180.485 398.501 179.021C397.037 177.558 396.215 175.572 396.215 173.502C396.215 171.432 397.037 169.447 398.501 167.984C399.964 166.52 401.95 165.698 404.02 165.698H630.4C632.47 165.698 634.455 166.52 635.919 167.984C637.383 169.447 638.205 171.432 638.205 173.502C638.205 175.572 637.383 177.558 635.919 179.021C634.455 180.485 632.47 181.307 630.4 181.307Z" fill="#4D4C78"/>
<path d="M580.527 245.737H404.02C401.95 245.737 399.964 244.914 398.501 243.451C397.037 241.987 396.215 240.002 396.215 237.932C396.215 235.862 397.037 233.877 398.501 232.413C399.964 230.949 401.95 230.127 404.02 230.127H580.527C582.597 230.127 584.582 230.949 586.046 232.413C587.509 233.877 588.332 235.862 588.332 237.932C588.332 240.002 587.509 241.987 586.046 243.451C584.582 244.914 582.597 245.737 580.527 245.737Z" fill="#4D4C78"/>
<path d="M76.9951 172.839V621.112H162.966V176.429H76.9951V172.839Z" fill="#67BAEB"/>
<path d="M162.966 118.439C162.966 112.792 161.854 107.199 159.692 101.982C157.531 96.7642 154.363 92.0233 150.37 88.03C146.377 84.0366 141.636 80.8689 136.418 78.7077C131.201 76.5465 125.608 75.4341 119.961 75.4341C114.315 75.4341 108.725 76.5468 103.51 78.7084C98.2942 80.8701 93.556 84.0385 89.5657 88.0323C85.5755 92.0262 82.4114 96.7674 80.2545 101.985C78.0976 107.202 76.99 112.793 76.9951 118.439V143.259H162.966V118.439Z" fill="#DE3226"/>
<path d="M76.9951 176.429H162.966V143.259H76.9951V172.839V176.429Z" fill="#F4C23F"/>
<path d="M76.9951 621.112H162.966L128.195 699.902C125.034 707.044 114.888 707.044 111.727 699.902L76.9951 621.112Z" fill="#B9B1E0"/>
<path d="M76.9951 621.112H99.6293V176.429H76.9951V172.839V621.112Z" fill="#46A1F8"/>
<path d="M162.966 143.259H99.6293V118.439C99.6283 109.011 102.725 99.8447 108.444 92.3494C114.162 84.8541 122.185 79.4456 131.278 76.9561C127.59 75.9484 123.784 75.4366 119.961 75.4341C114.315 75.4341 108.725 76.5468 103.51 78.7084C98.2942 80.8701 93.556 84.0385 89.5657 88.0323C85.5755 92.0262 82.4114 96.7674 80.2545 101.985C78.0976 107.202 76.99 112.793 76.9951 118.439V143.259H162.966Z" fill="#B11A31"/>
<path d="M99.6293 176.429V172.839V143.259H76.9951V172.839V176.429H99.6293Z" fill="#F4A93F"/>
<path d="M128.195 699.902L131.278 692.878L99.6293 621.112H76.9951L111.727 699.902C114.888 707.044 125.034 707.044 128.195 699.902Z" fill="#B1A9D6"/>
<path d="M114.459 282.341C115.543 281.237 116.932 280.482 118.448 280.173C119.964 279.863 121.538 280.014 122.968 280.605C124.398 281.197 125.618 282.201 126.473 283.491C127.328 284.781 127.778 286.297 127.766 287.844V557.58C127.766 559.65 126.944 561.636 125.48 563.099C124.016 564.563 122.031 565.385 119.961 565.385C117.891 565.385 115.906 564.563 114.442 563.099C112.978 561.636 112.156 559.65 112.156 557.58V287.844C112.165 285.777 112.993 283.798 114.459 282.341Z" fill="#4D4C78"/>
<path d="M114.459 220.761C115.552 219.674 116.944 218.935 118.457 218.638C119.97 218.34 121.538 218.498 122.961 219.091C124.385 219.684 125.601 220.685 126.456 221.969C127.311 223.252 127.767 224.76 127.766 226.302V255.415C127.766 257.485 126.944 259.47 125.48 260.933C124.016 262.397 122.031 263.219 119.961 263.219C117.891 263.219 115.906 262.397 114.442 260.933C112.978 259.47 112.156 257.485 112.156 255.415V226.302C112.171 224.226 112.998 222.237 114.459 220.761Z" fill="#4D4C78"/>
<path d="M143.688 495.766C143.688 501.068 147.977 505.366 153.268 505.366C158.559 505.366 162.849 501.068 162.849 495.766V406.334C162.849 401.032 158.559 396.734 153.268 396.734C147.977 396.734 143.688 401.032 143.688 406.334V495.766Z" fill="#83D0FB"/>
<path d="M143.688 366.712C143.688 372.014 147.977 376.312 153.268 376.312C158.559 376.312 162.849 372.014 162.849 366.712V344.488C162.849 339.186 158.559 334.888 153.268 334.888C147.977 334.888 143.688 339.186 143.688 344.488V366.712Z" fill="#83D0FB"/>
<path d="M143.688 163.512C143.688 168.814 147.977 173.112 153.268 173.112C158.559 173.112 162.849 168.814 162.849 163.512V158.868C162.849 153.566 158.559 149.268 153.268 149.268C147.977 149.268 143.688 153.566 143.688 158.868V163.512Z" fill="#FAD564"/>
<path d="M142.517 133.932C142.517 139.234 146.806 143.532 152.098 143.532C157.389 143.532 161.678 139.234 161.678 133.932V111.298C161.678 105.996 157.389 101.698 152.098 101.698C146.806 101.698 142.517 105.996 142.517 111.298V133.932Z" fill="#F44533"/>
<path d="M343.493 241.99C343.493 237.723 340.033 234.263 335.766 234.263C331.499 234.263 328.039 237.723 328.039 241.99V492.972C328.039 497.239 331.499 500.699 335.766 500.699C340.033 500.699 343.493 497.239 343.493 492.972V241.99Z" fill="#83D0FB"/>
<path d="M295.766 177.132H260.254C255.361 177.132 251.395 181.098 251.395 185.99V185.998C251.395 190.89 255.361 194.857 260.254 194.857H295.766C300.658 194.857 304.624 190.89 304.624 185.998V185.99C304.624 181.098 300.658 177.132 295.766 177.132Z" fill="#64639C"/>
<path d="M295.766 312.312H260.254C255.361 312.312 251.395 316.278 251.395 321.171V321.179C251.395 326.071 255.361 330.037 260.254 330.037H295.766C300.658 330.037 304.624 326.071 304.624 321.179V321.171C304.624 316.278 300.658 312.312 295.766 312.312Z" fill="#64639C"/>
<path d="M295.766 447.493H260.254C255.361 447.493 251.395 451.459 251.395 456.351V456.359C251.395 461.251 255.361 465.218 260.254 465.218H295.766C300.658 465.218 304.624 461.251 304.624 456.359V456.351C304.624 451.459 300.658 447.493 295.766 447.493Z" fill="#64639C"/>
<path d="M295.766 582.673H260.254C255.361 582.673 251.395 586.639 251.395 591.532V591.539C251.395 596.432 255.361 600.398 260.254 600.398H295.766C300.658 600.398 304.624 596.432 304.624 591.539V591.532C304.624 586.639 300.658 582.673 295.766 582.673Z" fill="#64639C"/>
<path d="M723.005 247.063C723.005 239.994 717.283 234.263 710.224 234.263C703.166 234.263 697.444 239.994 697.444 247.063V593.339C697.444 600.408 703.166 606.139 710.224 606.139C717.283 606.139 723.005 600.408 723.005 593.339V247.063Z" fill="#FAD564"/>
<path d="M662.4 81.678H524.722C519.549 81.678 515.356 85.8652 515.356 91.0302C515.356 96.1953 519.549 100.382 524.722 100.382H662.4C667.572 100.382 671.766 96.1953 671.766 91.0302C671.766 85.8652 667.572 81.678 662.4 81.678Z" fill="#FAD564"/>
</svg>
