<svg width="800" height="800" viewBox="0 0 800 800" fill="none" xmlns="http://www.w3.org/2000/svg">
<path d="M751 285.85C751.03 244.113 739.105 203.289 716.709 168.463C694.313 133.638 662.437 106.35 625.052 89.9996C587.666 73.6492 546.424 68.9587 506.461 76.5123C466.499 84.066 429.584 103.53 400.314 132.479C361.111 93.9132 308.734 72.7001 254.457 73.4064C200.179 74.1128 148.342 96.6822 110.103 136.256C71.8648 175.83 50.2827 229.245 50.0028 285.001C49.7229 340.758 70.7676 394.398 108.607 434.375H108.447L377.471 718.112C380.435 721.241 383.979 723.728 387.894 725.427C391.809 727.125 396.016 728 400.266 728C404.516 728 408.723 727.125 412.638 725.427C416.553 723.728 420.097 721.241 423.061 718.112L692.212 434.375H692.021C729.856 394.71 751.033 341.381 751 285.85Z" fill="#F2C4BB"/>
<path d="M399.613 751C385.13 751.037 371.211 745.244 360.846 734.866C360.448 734.507 360.05 734.114 359.667 733.706L90.7242 450.528C90.1666 449.939 89.6407 449.335 89.1309 448.697C48.6446 405.324 25.728 347.795 25.017 287.747C24.3061 227.699 45.854 169.615 85.3016 125.247C124.749 80.878 179.151 53.5364 237.503 48.7531C295.854 43.9698 353.798 62.1019 399.613 99.4813C445.441 62.1983 503.352 44.1453 561.652 48.9685C619.951 53.7917 674.294 81.1316 713.706 125.467C753.118 169.802 774.661 227.828 773.985 287.826C773.308 347.825 750.463 405.325 710.063 448.713C709.567 449.35 709.035 449.955 708.47 450.528L439.558 733.706C439.176 734.12 438.778 734.512 438.363 734.883C428.004 745.256 414.089 751.044 399.613 751ZM393.048 698.594C393.351 698.872 393.638 699.167 393.941 699.477C394.674 700.262 395.554 700.887 396.529 701.314C397.504 701.741 398.553 701.961 399.613 701.961C400.673 701.961 401.722 701.741 402.697 701.314C403.672 700.887 404.552 700.262 405.285 699.477L406.178 698.578L672.635 418.032C673.113 417.427 673.607 416.855 674.133 416.299C707.601 380.995 726.217 333.62 725.972 284.375C725.727 235.129 706.642 187.951 672.824 152.999C639.007 118.047 593.163 98.1169 545.163 97.4991C497.162 96.8814 450.845 115.626 416.184 149.696C411.731 154.091 405.792 156.546 399.613 156.546C393.434 156.546 387.495 154.091 383.042 149.696C348.381 115.626 302.063 96.8814 254.063 97.4991C206.063 98.1169 160.219 118.047 126.402 152.999C92.5843 187.951 73.4986 235.129 73.2538 284.375C73.0091 333.62 91.6249 380.995 125.093 416.299C125.635 416.855 126.129 417.443 126.607 418.032L393.048 698.594Z" fill="#F28080"/>
<path d="M424.753 742C420.083 742.003 415.515 740.584 411.622 737.922C407.73 735.26 404.684 731.472 402.868 727.033C401.052 722.594 400.546 717.701 401.412 712.967C402.279 708.232 404.48 703.867 407.74 700.416L673.263 419.224C673.738 418.62 674.229 418.049 674.751 417.494C707.996 382.521 726.588 335.472 726.52 286.49C726.52 279.995 729.021 273.766 733.473 269.173C737.925 264.58 743.964 262 750.26 262C756.556 262 762.594 264.58 767.046 269.173C771.499 273.766 774 279.995 774 286.49C774.098 347.381 751.316 405.941 710.44 449.869C709.947 450.505 709.419 451.11 708.857 451.682L441.751 734.522C439.546 736.878 436.906 738.753 433.987 740.037C431.067 741.322 427.927 741.989 424.753 742Z" fill="#BF95BC"/>
<path d="M463.245 556C462.607 556 461.954 556 461.316 555.918C456.225 555.495 451.4 553.411 447.548 549.971C443.697 546.532 441.021 541.918 439.914 536.807L399.5 350.429L359.086 536.807C357.979 541.918 355.303 546.531 351.452 549.97C347.601 553.409 342.776 555.493 337.685 555.917C332.594 556.34 327.504 555.081 323.162 552.324C318.82 549.567 315.454 545.457 313.556 540.596L266.704 420.504L228.154 479.75C225.972 483.106 223.014 485.858 219.545 487.762C216.075 489.665 212.201 490.661 208.266 490.662H48.9043C42.5645 490.662 36.4843 488.08 32.0014 483.485C27.5185 478.89 25 472.658 25 466.16C25 459.661 27.5185 453.429 32.0014 448.834C36.4843 444.239 42.5645 441.658 48.9043 441.658H195.517L252.17 354.561C254.586 350.846 257.947 347.878 261.889 345.977C265.831 344.077 270.204 343.317 274.537 343.78C278.87 344.242 282.997 345.909 286.473 348.601C289.948 351.293 292.64 354.907 294.258 359.053L329.317 448.747L376.281 232.166C377.465 226.729 380.421 221.867 384.662 218.383C388.903 214.899 394.176 213 399.612 213C405.047 213 410.32 214.899 414.561 218.383C418.802 221.867 421.758 226.729 422.942 232.166L469.906 448.747L504.966 359.053C506.583 354.907 509.275 351.293 512.75 348.601C516.226 345.909 520.353 344.242 524.686 343.78C529.019 343.317 533.392 344.077 537.334 345.977C541.277 347.878 544.637 350.846 547.053 354.561L603.483 441.658H750.096C756.436 441.658 762.516 444.239 766.999 448.834C771.482 453.429 774 459.661 774 466.16C774 472.658 771.482 478.89 766.999 483.485C762.516 488.08 756.436 490.662 750.096 490.662H590.734C586.799 490.661 582.925 489.665 579.455 487.762C575.986 485.858 573.028 483.106 570.846 479.75L532.296 420.504L485.444 540.596C483.669 545.144 480.606 549.042 476.649 551.788C472.692 554.534 468.023 556.001 463.245 556Z" fill="#8D9CF4"/>
</svg>
