<svg width="800" height="800" viewBox="0 0 800 800" fill="none" xmlns="http://www.w3.org/2000/svg">
<path d="M34.7904 309.987V670.737H760.165V308.612C760.165 308.612 615.04 208.487 608.353 207.549C601.665 206.612 406.728 28.1743 406.728 28.1743L191.853 201.487L34.7904 309.987Z" fill="#F8C778"/>
<path d="M34.7904 339.612H206.04L205.853 700.362H234.29L234.478 261.174L402.478 113.299L571.978 268.299L571.54 700.362H598.165L598.603 337.549L760.165 338.674V317.112L612.79 238.112L415.665 64.9243L198.04 234.549L34.9154 318.987L34.7904 339.612Z" fill="#F5B03F"/>
<path d="M77.1029 191.237C75.9779 193.049 32.4154 313.174 31.6029 315.674C30.7904 318.174 32.8529 321.112 37.8529 321.549C42.8529 321.987 215.29 321.549 215.29 321.549L214.79 247.924C214.79 247.924 399.915 81.2993 401.978 81.2993C404.04 81.2993 590.603 252.237 591.04 254.799C591.478 257.299 591.853 318.674 591.853 318.674C591.853 318.674 755.915 319.924 759.29 320.362C762.665 320.799 763.478 316.174 760.54 307.424C757.603 298.674 723.353 193.049 720.853 191.362C718.353 189.674 583.103 189.674 583.103 189.674C583.103 189.674 413.665 33.6743 410.728 31.1743C407.79 28.6743 399.04 24.8618 391.29 32.6118C384.478 39.4243 215.478 190.924 215.478 190.924C215.478 190.924 78.3529 189.112 77.1029 191.237Z" fill="#A62714"/>
<path d="M269.665 428.862L269.603 700.612H534.353V428.862C534.353 428.862 269.665 428.174 269.665 428.862Z" fill="#CF6150"/>
<path d="M17.9779 701.737C20.2904 705.237 47.2904 703.612 119.228 703.987C191.165 704.362 212.103 704.237 215.853 703.487C219.54 702.737 222.54 686.549 220.103 672.487C217.415 657.049 208.165 642.487 193.165 637.799C173.103 631.549 160.728 637.299 151.103 633.924C141.478 630.612 113.29 616.487 84.7279 618.362C60.2279 619.924 42.7904 627.112 27.6029 649.487C11.2904 673.549 16.4779 699.487 17.9779 701.737Z" fill="#7DB240"/>
<path d="M783.29 700.237C786.978 697.674 786.665 626.674 737.29 621.237C700.228 617.174 690.54 633.112 684.29 633.112C677.978 633.112 653.978 621.424 620.853 634.237C579.665 650.174 580.415 696.549 581.915 700.987C583.415 705.424 626.04 704.299 684.603 704.674C743.165 705.049 778.478 703.612 783.29 700.237Z" fill="#7DB240"/>
<path d="M67.5404 360.362H184.353V454.424H65.9779C65.9779 454.424 66.7279 361.112 67.5404 360.362Z" fill="#3E737C"/>
<path d="M65.9779 498.362H182.29V589.362H64.9779C64.9779 589.424 65.4779 497.862 65.9779 498.362Z" fill="#3E737C"/>
<path d="M85.2278 377.549H164.603V439.737H84.2278C84.2278 439.737 83.6653 378.049 85.2278 377.549Z" fill="#A7D0D7"/>
<path d="M81.6654 513.549H165.603V573.737H81.6654V513.549Z" fill="#A7D0D7"/>
<path d="M618.165 365.924H734.478V459.487H617.665C617.665 459.487 618.165 364.424 618.165 365.924Z" fill="#3E737C"/>
<path d="M634.353 382.112H717.79V442.799H634.353V382.112Z" fill="#A7D0D7"/>
<path d="M616.665 503.924H732.478V592.424H616.665C616.665 592.424 615.915 504.737 616.665 503.924Z" fill="#3E737C"/>
<path d="M634.853 520.112V574.737H714.228V519.612C714.228 519.612 634.103 519.362 634.853 520.112Z" fill="#A7D0D7"/>
<path d="M308.103 700.737L308.04 458.487H498.665V700.737H308.103Z" fill="#3E737C"/>
<path d="M476.103 507.924V476.049H331.603V507.924H476.103Z" fill="#A7D0D7"/>
<path d="M331.603 523.862H476.103V606.799H331.603V523.862Z" fill="#A7D0D7"/>
<path d="M331.603 623.862H476.103V667.237H331.603V623.862Z" fill="#A7D0D7"/>
<path d="M396.978 516.737V679.924H413.478V515.049C413.478 515.049 398.103 516.737 396.978 516.737Z" fill="#3E737C"/>
<path d="M398.103 175.549C333.29 176.112 289.853 224.424 293.165 286.549C296.353 346.924 344.29 384.799 399.728 383.237C457.978 381.612 499.728 334.862 501.353 279.424C502.978 223.987 457.978 175.049 398.103 175.549Z" fill="#3E737C"/>
<path d="M396.478 194.237C343.728 194.237 308.54 234.362 310.79 282.674C312.915 329.299 344.29 364.549 398.165 364.549C447.603 364.549 480.103 323.924 481.103 282.112C482.165 236.487 448.103 194.237 396.478 194.237Z" fill="white"/>
<path d="M381.103 304.299C381.103 304.299 350.478 330.049 348.79 333.049C347.103 336.049 347.165 340.987 351.228 344.299C355.353 347.612 359.415 345.674 361.915 343.737C364.353 341.799 396.665 315.299 396.665 315.299C396.665 315.299 407.103 315.112 409.54 302.737C411.478 292.862 404.353 288.237 404.353 288.237C404.353 288.237 403.228 229.112 402.728 224.737C402.29 221.487 398.915 218.424 395.915 218.737C392.915 218.987 389.915 220.674 389.603 225.549C389.29 230.424 388.978 287.049 388.978 287.049C388.978 287.049 384.603 288.674 382.165 293.362C379.728 297.987 381.103 304.299 381.103 304.299Z" fill="#2F2F2F"/>
</svg>
