<svg width="800" height="800" viewBox="0 0 800 800" fill="none" xmlns="http://www.w3.org/2000/svg">
<path d="M682.838 117.15C526.638 -39.025 273.363 -39.025 117.163 117.15C-39.05 273.35 -39.05 526.625 117.163 682.85C273.363 839.05 526.638 839.05 682.838 682.85C839.05 526.625 839.05 273.35 682.838 117.15ZM665.163 134.825C720.513 190.175 754.9 258.512 768.425 330.012C649.063 320.9 526.625 361.75 435.35 453.013C419.313 469.05 404.888 486.087 391.963 503.837C360.875 480.575 331.05 454.762 302.763 426.487C295.663 419.387 288.938 412.038 282.163 404.738C304.475 375.413 329.013 347.213 355.813 320.438C444.275 231.963 547.925 168.137 658.288 128.275C660.588 130.462 662.913 132.575 665.163 134.825ZM637.163 109.487C528.175 150.85 425.9 215 338.138 302.775C311.675 329.238 287.325 357.025 265.075 385.9C237.275 354.112 212.238 320.762 190.163 286.075C244.325 215.025 273.075 130.875 276.463 45.8625C396.775 3.9875 534.15 25.1875 637.163 109.487ZM134.838 134.825C169.275 100.375 208.775 74.15 250.9 55.925C245.963 129.025 221.063 200.988 176.175 263C154.575 226.475 136.075 188.687 120.575 149.912C125.175 144.812 129.913 139.763 134.838 134.825ZM102.413 171.937C118.55 210.488 137.638 248.012 159.688 284.287C151.875 293.662 143.625 302.813 134.838 311.613C102.013 344.425 64.85 370.187 25.2625 389.2C27.45 312.312 53.175 236.025 102.413 171.937ZM25.3875 416.738C71.4875 396.175 114.7 367.1 152.513 329.288C159.863 321.938 166.788 314.3 173.488 306.562C196.1 341.275 221.588 374.65 249.788 406.462C194 483.662 152.888 568.138 126.175 656.05C62.875 588.438 29.25 503.163 25.3875 416.738ZM146.4 676.162C171.663 587.787 211.788 502.775 267.075 425.238C273.063 431.563 278.888 438 285.088 444.187C314.475 473.587 345.488 500.288 377.825 524.463C331.2 597.188 309.1 681.05 311.213 764.375C251.425 749.863 194.538 720.425 146.4 676.162ZM665.163 665.15C575.713 754.625 452.313 789.325 336.425 769.5C333.263 689.638 353.7 609.05 398.088 539.2C480.9 597.375 571.788 638.938 666.15 664.125C665.813 664.463 665.5 664.838 665.163 665.15ZM412.238 518.512C424.413 501.812 437.95 485.775 453.025 470.687C540.4 383.337 658.113 345.075 772.25 355.45C784.263 456.4 755.3 561.237 685.338 643.15C589.125 619.125 496.4 577.65 412.238 518.512Z" fill="#404848"/>
<path d="M282.163 404.75C288.938 412.05 295.663 419.4 302.763 426.5C331.05 454.775 360.863 480.575 391.963 503.85C404.888 486.1 419.313 469.062 435.35 453.025C526.625 361.762 649.063 320.925 768.425 330.025C754.9 258.512 720.513 190.175 665.163 134.837C662.913 132.587 660.588 130.462 658.288 128.3C547.925 168.162 444.275 231.987 355.813 320.462C329.013 347.225 304.475 375.425 282.163 404.75Z" fill="#FF8548"/>
<path d="M265.075 385.9C287.313 357.013 311.675 329.238 338.138 302.775C425.888 215 528.175 150.838 637.163 109.488C534.163 25.1875 396.788 4.00001 276.475 45.8625C273.088 130.875 244.338 215.025 190.175 286.075C212.238 320.763 237.275 354.113 265.075 385.9Z" fill="#FF8548"/>
<path d="M250.9 55.925C208.775 74.1625 169.275 100.387 134.838 134.825C129.9 139.762 125.175 144.812 120.575 149.912C136.075 188.687 154.588 226.475 176.175 263C221.075 200.988 245.975 129.012 250.9 55.925Z" fill="#FF8548"/>
<path d="M159.688 284.287C137.638 248.012 118.55 210.488 102.413 171.938C53.1751 236.025 27.4501 312.313 25.2626 389.2C64.8501 370.188 102.013 344.425 134.838 311.613C143.625 302.825 151.875 293.662 159.688 284.287Z" fill="#FF8548"/>
<path d="M173.488 306.55C166.788 314.287 159.863 321.925 152.513 329.275C114.7 367.087 71.4876 396.175 25.3876 416.725C29.2501 503.15 62.8751 588.425 126.163 656.038C152.875 568.125 193.988 483.65 249.775 406.45C221.588 374.65 196.1 341.275 173.488 306.55Z" fill="#FF8548"/>
<path d="M285.1 444.175C278.9 438 273.063 431.55 267.088 425.225C211.8 502.762 171.675 587.775 146.413 676.15C194.563 720.412 251.438 749.85 311.238 764.362C309.125 681.037 331.225 597.175 377.85 524.45C345.5 500.275 314.475 473.575 285.1 444.175Z" fill="#FF8548"/>
<path d="M336.425 769.5C452.313 789.325 575.713 754.637 665.163 665.15C665.5 664.837 665.813 664.462 666.15 664.125C571.788 638.925 480.9 597.375 398.088 539.2C353.7 609.05 333.263 689.637 336.425 769.5Z" fill="#FF8548"/>
<path d="M772.25 355.463C658.113 345.088 540.4 383.338 453.025 470.7C437.95 485.788 424.413 501.825 412.238 518.525C496.388 577.65 589.113 619.138 685.338 643.163C755.3 561.238 784.263 456.413 772.25 355.463Z" fill="#FF8548"/>
<path opacity="0.2" d="M336.425 769.5C452.313 789.325 575.713 754.637 665.163 665.15C665.5 664.837 665.813 664.462 666.15 664.125C571.788 638.925 480.9 597.375 398.088 539.2C353.7 609.05 333.263 689.637 336.425 769.5Z" fill="#231F20"/>
<path opacity="0.2" d="M772.25 355.463C658.113 345.088 540.4 383.338 453.025 470.7C437.95 485.788 424.413 501.825 412.238 518.525C496.388 577.65 589.113 619.138 685.338 643.163C755.3 561.238 784.263 456.413 772.25 355.463Z" fill="#231F20"/>
<g opacity="0.2">
<path d="M134.838 134.825C129.9 139.762 125.175 144.812 120.575 149.912C136.075 188.687 154.588 226.475 176.175 263C221.063 200.988 245.963 129.012 250.9 55.925C208.775 74.1625 169.275 100.375 134.838 134.825Z" fill="white"/>
<path d="M25.2626 389.2C64.8501 370.188 102.013 344.425 134.838 311.613C143.625 302.825 151.875 293.662 159.688 284.287C137.638 248.012 118.55 210.488 102.413 171.938C53.1751 236.025 27.4501 312.313 25.2626 389.2Z" fill="white"/>
</g>
</svg>
